name C:\Users\u0101727\Documents\MyRepositories\upper-imu-dc\Results\main_tracking\Case_10\FLX01_linearAccelerations_bodyFrame.mot
datacolumns 4
datarows 47
range 5.01000000 5.47000000
endheader 
time	radius_imu_x	radius_imu_y	radius_imu_z	
          5.01000000	         -2.06324912	          3.55223044	         10.08749192	
          5.02000000	         -1.89651097	          3.62027895	         10.14211444	
          5.03000000	         -1.77423541	          3.66006648	         10.18082392	
          5.04000000	         -1.75804142	          3.68072192	         10.18944843	
          5.05000000	         -1.87499691	          3.70152817	         10.15998139	
          5.06000000	         -2.09984918	          3.74520902	         10.09439060	
          5.07000000	         -2.36426328	          3.82765792	         10.00266978	
          5.08000000	         -2.58714617	          3.94972353	          9.89678197	
          5.09000000	         -2.70887730	          4.09592311	          9.78487884	
          5.10000000	         -2.70916686	          4.24110212	          9.66946528	
          5.11000000	         -2.60066980	          4.36191632	          9.54972293	
          5.12000000	         -2.40576581	          4.44772119	          9.42570038	
          5.13000000	         -2.13692367	          4.50552379	          9.30115361	
          5.14000000	         -1.80009410	          4.55613095	          9.18265416	
          5.15000000	         -1.41522331	          4.62328856	          9.07594634	
          5.16000000	         -1.02676601	          4.72186711	          8.98346484	
          5.17000000	         -0.68618511	          4.85126663	          8.90593189	
          5.18000000	         -0.41832925	          4.99661447	          8.84647284	
          5.19000000	         -0.20155840	          5.13675512	          8.81261732	
          5.20000000	          0.02416812	          5.25536228	          8.81420052	
          5.21000000	          0.33156670	          5.34948425	          8.85967391	
          5.22000000	          0.77736697	          5.43112022	          8.95358500	
          5.23000000	          1.37822574	          5.52190508	          9.09513853	
          5.24000000	          2.09631825	          5.64438158	          9.27641885	
          5.25000000	          2.84296371	          5.81408271	          9.48077631	
          5.26000000	          3.50540235	          6.03556208	          9.68404597	
          5.27000000	          3.98472811	          6.30289487	          9.85962724	
          5.28000000	          4.22394782	          6.60315516	          9.98459392	
          5.29000000	          4.21751415	          6.92186910	         10.04323034	
          5.30000000	          4.00433675	          7.24872856	         10.02650895	
          5.31000000	          3.64900551	          7.58062920	          9.92899344	
          5.32000000	          3.21997155	          7.92017074	          9.74643096	
          5.33000000	          2.77320246	          8.27089301	          9.47606302	
          5.34000000	          2.34473340	          8.63243221	          9.11899286	
          5.35000000	          1.95166612	          8.99830291	          8.68254995	
          5.36000000	          1.59784440	          9.35691784	          8.18090903	
          5.37000000	          1.27958659	          9.69454677	          7.63358898	
          5.38000000	          0.98971921	          9.99848481	          7.06271668	
          5.39000000	          0.71972956	         10.25949915	          6.49011024	
          5.40000000	          0.45989834	         10.47340452	          5.93477596	
          5.41000000	          0.19898610	         10.64198617	          5.41127575	
          5.42000000	         -0.07389507	         10.77335632	          4.92925188	
          5.43000000	         -0.36517856	         10.88101846	          4.49381807	
          5.44000000	         -0.67350932	         10.98064132	          4.10606370	
          5.45000000	         -0.99005280	         11.08471852	          3.76313953	
          5.46000000	         -1.30243435	         11.19732685	          3.45817048	
          5.47000000	         -1.59996723	         11.31195415	          3.18079534	
